<svg xmlns="http://www.w3.org/2000/svg" width="18" height="18" viewBox="0 0 18 18" fill="none">
    <path fill-rule="evenodd" clip-rule="evenodd"
        d="M1.5 4.5C1.5 4.08579 1.83579 3.75 2.25 3.75H15.75C16.1642 3.75 16.5 4.08579 16.5 4.5C16.5 4.91421 16.1642 5.25 15.75 5.25H2.25C1.83579 5.25 1.5 4.91421 1.5 4.5Z"
        fill="#75798A" />
    <path fill-rule="evenodd" clip-rule="evenodd"
        d="M4.5 9C4.5 8.58578 4.83579 8.25 5.25 8.25H12.75C13.1642 8.25 13.5 8.58578 13.5 9C13.5 9.41422 13.1642 9.75 12.75 9.75H5.25C4.83579 9.75 4.5 9.41422 4.5 9Z"
        fill="#75798A" />
    <path fill-rule="evenodd" clip-rule="evenodd"
        d="M3 13.5C3 13.0858 3.33579 12.75 3.75 12.75H14.25C14.6642 12.75 15 13.0858 15 13.5C15 13.9142 14.6642 14.25 14.25 14.25H3.75C3.33579 14.25 3 13.9142 3 13.5Z"
        fill="#75798A" />
</svg>