<svg xmlns="http://www.w3.org/2000/svg" width="18" height="18" viewBox="0 0 18 18" fill="none">
    <path
        d="M13.4719 13.0841C14.24 13.0841 14.8676 12.4477 14.8676 11.669C14.8676 10.7286 13.4719 9.19403 13.4719 9.19403C13.4719 9.19403 12.0762 10.7286 12.0762 11.669C12.0762 12.4477 12.7037 13.0841 13.4719 13.0841ZM6.84316 12.3089C6.96797 12.4337 7.17012 12.4337 7.29316 12.3089L11.7949 7.80887C11.9197 7.68406 11.9197 7.48192 11.7949 7.35887L7.29492 2.85887C7.28438 2.84832 7.27207 2.83778 7.25977 2.82899L5.88516 1.45438C5.85519 1.42479 5.81477 1.4082 5.77266 1.4082C5.73054 1.4082 5.69013 1.42479 5.66016 1.45438L4.81641 2.29813C4.78682 2.3281 4.77023 2.36851 4.77023 2.41063C4.77023 2.45274 4.78682 2.49316 4.81641 2.52313L5.99766 3.70438L2.34492 7.35887C2.22012 7.48367 2.22012 7.68582 2.34492 7.80887L6.84316 12.3089ZM7.06992 4.42332L10.2146 7.56805H3.92695L7.06992 4.42332ZM15.8906 14.3444H2.10938C2.03203 14.3444 1.96875 14.4077 1.96875 14.485V15.8913C1.96875 15.9686 2.03203 16.0319 2.10938 16.0319H15.8906C15.968 16.0319 16.0312 15.9686 16.0312 15.8913V14.485C16.0312 14.4077 15.968 14.3444 15.8906 14.3444Z"
        fill="#75798A" />
</svg>