<svg xmlns="http://www.w3.org/2000/svg" width="20" height="20" viewBox="0 0 20 20" fill="none">
    <path
        d="M3.00033 10.4226C3.01965 8.7889 3.65352 7.22235 4.77576 6.03489C5.898 4.84742 7.42628 4.12614 9.05633 4.01465L9.09433 4.68465C6.44833 5.42265 5.35433 7.66265 5.22033 9.99965H9.00033C9.55233 9.99965 9.50033 10.4316 9.50033 10.9856V15.4966C9.50033 16.0506 9.05233 15.9996 8.50033 15.9996H3.50033C2.94833 15.9996 3.00033 15.5506 3.00033 14.9966V10.4226ZM11.0003 10.4226C11.0196 8.7889 11.6535 7.22235 12.7758 6.03489C13.898 4.84742 15.4263 4.12614 17.0563 4.01465L17.0943 4.68465C14.4483 5.42365 13.3543 7.66365 13.2213 9.99965H17.0003C17.5523 9.99965 17.5003 10.4316 17.5003 10.9856V15.4966C17.5003 16.0506 17.0523 15.9996 16.5003 15.9996H11.5003C10.9483 15.9996 11.0003 15.5506 11.0003 14.9966V10.4226Z"
        fill="#75798A" />
</svg>