<svg xmlns="http://www.w3.org/2000/svg" width="18" height="18" viewBox="0 0 18 18" fill="none">
    <path
        d="M9.1684 15.3002H5.1958C4.6222 15.3002 4.213 15.1757 3.9682 14.9267C3.7222 14.6771 3.5995 14.2802 3.6001 13.736V4.2644C3.6001 3.7088 3.7258 3.3092 3.9772 3.0656C4.228 2.8226 4.6342 2.7008 5.1958 2.7002H9.4078C10.0288 2.7002 10.5667 2.7374 11.0215 2.8118C11.4775 2.8862 11.8855 3.0296 12.2455 3.242C12.5527 3.4196 12.8245 3.6446 13.0609 3.917C13.5325 4.45521 13.7911 5.14722 13.7881 5.8628C13.7881 7.124 13.138 8.0465 11.8378 8.6303C13.5454 9.1577 14.3995 10.184 14.4001 11.7092C14.4074 12.3805 14.2147 13.0389 13.8468 13.6004C13.4788 14.162 12.9521 14.6014 12.3337 14.8628C11.8953 15.0349 11.4363 15.149 10.9684 15.2021C10.4542 15.2681 9.8542 15.3002 9.1684 15.3002ZM8.9731 9.7049H6.3001V13.3832H9.0622C10.8412 13.3832 11.7307 12.7616 11.7307 11.5184C11.7307 10.8818 11.5003 10.4207 11.0395 10.1351C10.5787 9.8483 9.8899 9.7049 8.9731 9.7049ZM6.3001 4.6172V7.8743H8.6455C9.3013 7.8743 9.8083 7.8143 10.1665 7.6943C10.5178 7.5785 10.8111 7.33196 10.9855 7.0058C11.1337 6.7658 11.2078 6.4967 11.2078 6.1985C11.2078 5.5625 10.9744 5.1398 10.5076 4.9304C10.0408 4.7216 9.3283 4.6172 8.3701 4.6172H6.3001Z"
        fill="#75798A" />
</svg>