<svg xmlns="http://www.w3.org/2000/svg" width="18" height="18" viewBox="0 0 18 18" fill="none">
    <path
        d="M2.69995 2.6998C2.69995 2.46111 2.79477 2.23219 2.96356 2.06341C3.13234 1.89463 3.36126 1.7998 3.59995 1.7998H12.6C12.8386 1.7998 13.0676 1.89463 13.2363 2.06341C13.4051 2.23219 13.5 2.46111 13.5 2.6998V4.4998C13.5 4.7385 13.4051 4.96742 13.2363 5.1362C13.0676 5.30498 12.8386 5.3998 12.6 5.3998H3.59995C3.36126 5.3998 3.13234 5.30498 2.96356 5.1362C2.79477 4.96742 2.69995 4.7385 2.69995 4.4998V2.6998Z"
        fill="#75798A" />
    <path
        d="M14.4 2.9248C14.758 2.9248 15.1014 3.06704 15.3545 3.32021C15.6077 3.57338 15.75 3.91676 15.75 4.2748V5.8048C15.7496 6.29206 15.5737 6.76288 15.2543 7.13086C14.9349 7.49885 14.4935 7.73934 14.0112 7.8082L10.0296 8.377C9.86861 8.39998 9.72137 8.48027 9.61488 8.60312C9.5084 8.72598 9.44984 8.88313 9.44995 9.0457V9.8998C9.68865 9.8998 9.91756 9.99463 10.0863 10.1634C10.2551 10.3322 10.35 10.5611 10.35 10.7998V15.2998C10.35 15.5385 10.2551 15.7674 10.0863 15.9362C9.91756 16.105 9.68865 16.1998 9.44995 16.1998H8.09995C7.86126 16.1998 7.63234 16.105 7.46356 15.9362C7.29477 15.7674 7.19995 15.5385 7.19995 15.2998V10.7998C7.19995 10.5611 7.29477 10.3322 7.46356 10.1634C7.63234 9.99463 7.86126 9.8998 8.09995 9.8998V9.0448C8.10026 8.55754 8.27625 8.08673 8.59563 7.71875C8.91502 7.35076 9.35638 7.11027 9.83875 7.0414L13.8204 6.4726C13.9813 6.44963 14.1285 6.36934 14.235 6.24648C14.3415 6.12363 14.4001 5.96648 14.4 5.8039V2.9248Z"
        fill="#75798A" />
</svg>