<svg xmlns="http://www.w3.org/2000/svg" width="22" height="21" viewBox="0 0 22 21" fill="none">
    <path
        d="M1.58734 2.00024C0.975341 2.00024 0.986341 1.97124 0.986341 2.55124V17.3912C0.986341 17.9812 0.976341 17.9502 1.57734 17.9502H20.4233C21.0253 17.9502 21.0143 17.9802 21.0143 17.3902V2.55224C21.0143 1.97224 21.0243 2.00224 20.4233 2.00224H1.58734V2.00024ZM2.28834 2.97124H3.29134V3.97124H2.28834V2.97124ZM18.7363 2.97124H19.7393V3.97124H18.7363V2.97124ZM4.49634 3.97124H17.5043V15.9712H4.46734L4.49634 3.97124ZM2.28834 4.97124H3.29134V5.97124H2.28834V4.97124ZM18.7363 4.97124H19.7393V5.97124H18.7363V4.97124ZM2.28834 6.97124H3.29134V7.97124H2.28834V6.97124ZM18.7363 6.97124H19.7393V7.97124H18.7363V6.97124ZM2.28834 8.97124H3.29134V9.97124H2.28834V8.97124ZM18.7363 8.97124H19.7393V9.97124H18.7363V8.97124ZM2.28834 10.9712H3.29134V11.9712H2.28834V10.9712ZM18.7363 10.9712H19.7393V11.9712H18.7363V10.9712ZM2.28834 12.9712H3.29134L3.26234 13.9712H2.28834V12.9712ZM18.7363 12.9712H19.7393V13.9712H18.7363V12.9712ZM2.28834 14.9712H3.26234V15.9712H2.28834V14.9712ZM18.7363 14.9712H19.7393V15.9712H18.7363V14.9712Z"
        fill="#75798A" />
    <path
        d="M8.37402 7.14813C8.37402 7.0429 8.41547 6.94191 8.48941 6.86704C8.56334 6.79217 8.66381 6.74944 8.76902 6.74813C8.83882 6.74673 8.90778 6.76362 8.96902 6.79713L14.117 9.62113C14.1795 9.65572 14.2317 9.70643 14.2679 9.76798C14.3042 9.82953 14.3234 9.89968 14.3234 9.97113C14.3234 10.0426 14.3042 10.1127 14.2679 10.1743C14.2317 10.2358 14.1795 10.2865 14.117 10.3211L8.96902 13.1451C8.90796 13.1782 8.83938 13.195 8.76993 13.1938C8.70049 13.1925 8.63254 13.1734 8.57267 13.1382C8.51281 13.103 8.46306 13.0529 8.42825 12.9928C8.39345 12.9327 8.37477 12.8646 8.37402 12.7951V7.14813Z"
        fill="#75798A" />
</svg>