<svg xmlns="http://www.w3.org/2000/svg" width="18" height="18" viewBox="0 0 18 18" fill="none">
    <path
        d="M8.62744 13.1699L8.64634 13.1735C8.61394 13.4747 8.73184 13.7633 9.00004 14.0393C9.07384 14.1143 9.15604 14.1746 9.24664 14.2202H10.5732C10.7165 14.2202 10.8538 14.2771 10.9551 14.3784C11.0564 14.4796 11.1132 14.617 11.1132 14.7602C11.1132 14.9034 11.0564 15.0408 10.9551 15.142C10.8538 15.2433 10.7165 15.3002 10.5732 15.3002H4.77364C4.63043 15.3002 4.49307 15.2433 4.3918 15.142C4.29054 15.0408 4.23364 14.9034 4.23364 14.7602C4.23364 14.617 4.29054 14.4796 4.3918 14.3784C4.49307 14.2771 4.63043 14.2202 4.77364 14.2202H5.80864C6.23524 14.1566 6.53674 14.0564 6.71314 13.9196C6.85414 13.8104 6.97534 13.6313 7.07674 13.3823L9.25114 4.7873C9.26435 4.65293 9.24861 4.5173 9.20498 4.38953C9.16136 4.26176 9.09086 4.14483 8.99824 4.0466C8.88943 3.92659 8.75284 3.83511 8.60044 3.7802H7.33504C7.19183 3.7802 7.05447 3.7233 6.95321 3.62203C6.85194 3.52076 6.79504 3.38341 6.79504 3.2402C6.79504 3.09698 6.85194 2.95963 6.95321 2.85836C7.05447 2.75709 7.19183 2.7002 7.33504 2.7002H13.1337C13.277 2.7002 13.4143 2.75709 13.5156 2.85836C13.6169 2.95963 13.6737 3.09698 13.6737 3.2402C13.6737 3.38341 13.6169 3.52076 13.5156 3.62203C13.4143 3.7233 13.277 3.7802 13.1337 3.7802H12.0582C11.7198 3.8306 11.4729 3.9194 11.3175 4.0466C11.1237 4.2044 10.9368 4.4414 10.7568 4.7576L8.62744 13.1699Z"
        fill="#75798A" />
</svg>