<svg xmlns="http://www.w3.org/2000/svg" width="18" height="18" viewBox="0 0 18 18" fill="none">
    <path
        d="M6.29998 5.17469C6.29998 5.54729 6.60238 5.84969 6.97498 5.84969H15.525C15.704 5.84969 15.8757 5.77857 16.0023 5.65198C16.1289 5.5254 16.2 5.35371 16.2 5.17469C16.2 4.99567 16.1289 4.82398 16.0023 4.69739C15.8757 4.5708 15.704 4.49969 15.525 4.49969H6.97498C6.79596 4.49969 6.62427 4.5708 6.49768 4.69739C6.3711 4.82398 6.29998 4.99567 6.29998 5.17469ZM3.14998 2.69969V7.19969H1.79998V3.32969H0.899981V2.42969H3.14998V2.69969ZM0.308681 16.071L2.63968 13.1397H2.62798C2.67524 13.0576 2.70007 12.9645 2.69998 12.8698C2.69989 12.775 2.67488 12.682 2.62746 12.6C2.58004 12.518 2.51189 12.4499 2.42983 12.4025C2.34778 12.3552 2.25471 12.3303 2.15998 12.3303C2.06525 12.3303 1.97219 12.3552 1.89013 12.4025C1.80808 12.4499 1.73992 12.518 1.6925 12.6C1.64508 12.682 1.62007 12.775 1.61998 12.8698C1.61989 12.9645 1.64472 13.0576 1.69198 13.1397H0.271781C0.259587 12.896 0.297049 12.6525 0.38189 12.4237C0.466731 12.195 0.597181 11.9859 0.765317 11.8091C0.933453 11.6324 1.13577 11.4916 1.35997 11.3955C1.58417 11.2993 1.82558 11.2497 2.06953 11.2497C2.31349 11.2497 2.5549 11.2993 2.7791 11.3955C3.0033 11.4916 3.20561 11.6324 3.37375 11.8091C3.54188 11.9859 3.67233 12.195 3.75717 12.4237C3.84201 12.6525 3.87948 12.896 3.86728 13.1397C3.82348 13.5039 3.72268 13.8003 3.56668 14.0289C3.40888 14.2575 3.03568 14.6511 2.44708 15.2097H3.86998V16.1097H0.269981L0.308681 16.071ZM6.29998 13.2747C6.29998 13.0957 6.3711 12.924 6.49768 12.7974C6.62427 12.6708 6.79596 12.5997 6.97498 12.5997H15.525C15.704 12.5997 15.8757 12.6708 16.0023 12.7974C16.1289 12.924 16.2 13.0957 16.2 13.2747C16.2 13.4537 16.1289 13.6254 16.0023 13.752C15.8757 13.8786 15.704 13.9497 15.525 13.9497H6.97498C6.79596 13.9497 6.62427 13.8786 6.49768 13.752C6.3711 13.6254 6.29998 13.4537 6.29998 13.2747Z"
        fill="#75798A" />
</svg>