<svg xmlns="http://www.w3.org/2000/svg" width="18" height="18" viewBox="0 0 18 18" fill="none">
    <path
        d="M13.4622 8.4302L11.4921 10.0835C11.3549 10.1987 11.2692 10.3636 11.2537 10.542C11.2381 10.7204 11.2941 10.8977 11.4093 11.0348C11.5244 11.1719 11.6894 11.2577 11.8678 11.2732C12.0462 11.2887 12.2234 11.2328 12.3606 11.1176L15.7698 8.2556C15.8522 8.18666 15.917 8.09903 15.9588 8C16.0368 7.86272 16.0642 7.70245 16.0362 7.54706C16.0083 7.39166 15.9267 7.25099 15.8058 7.1495L12.393 4.2857C12.325 4.22873 12.2465 4.18571 12.1619 4.15908C12.0773 4.13246 11.9883 4.12276 11.9 4.13053C11.8117 4.1383 11.7257 4.1634 11.6471 4.20438C11.5684 4.24537 11.4986 4.30144 11.4417 4.3694C11.3847 4.43736 11.3417 4.51587 11.3151 4.60046C11.2884 4.68505 11.2787 4.77405 11.2865 4.86238C11.2943 4.95072 11.3194 5.03666 11.3604 5.1153C11.4013 5.19394 11.4574 5.26373 11.5254 5.3207L13.6233 7.0802H5.59797C5.53091 7.08083 5.46427 7.09083 5.39997 7.1099C4.87 7.11013 4.34661 7.22736 3.86718 7.45324C3.38775 7.67912 2.96411 8.00806 2.6265 8.41658C2.28889 8.82511 2.04564 9.30313 1.91412 9.81653C1.78261 10.3299 1.76606 10.866 1.86568 11.3866C1.96529 11.9071 2.1786 12.3992 2.49038 12.8278C2.80217 13.2563 3.20472 13.6108 3.66931 13.8658C4.1339 14.1208 4.64907 14.2701 5.17802 14.303C5.70697 14.3359 6.23666 14.2516 6.72927 14.0561L6.41967 12.716C6.11522 12.8705 5.77959 12.9537 5.43821 12.9593C5.09683 12.9649 4.75865 12.8928 4.44929 12.7483C4.13994 12.6038 3.86751 12.3909 3.65266 12.1255C3.43781 11.8602 3.28616 11.5494 3.20921 11.2168C3.13226 10.8841 3.13202 10.5383 3.20851 10.2056C3.285 9.87284 3.43621 9.56186 3.65069 9.29621C3.86517 9.03056 4.1373 8.81721 4.44645 8.67231C4.75561 8.52741 5.09368 8.45478 5.43507 8.4599L5.42787 8.4311L13.4622 8.4302Z"
        fill="#75798A" />
</svg>