<!-- 撤销 -->
<svg xmlns="http://www.w3.org/2000/svg" width="18" height="18" viewBox="0 0 18 18" fill="none">
    <path
        d="M4.53783 8.4302L6.50793 10.0835C6.64506 10.1987 6.73082 10.3636 6.74635 10.542C6.76188 10.7204 6.7059 10.8977 6.59073 11.0348C6.47556 11.1719 6.31063 11.2577 6.13223 11.2732C5.95382 11.2887 5.77656 11.2328 5.63943 11.1176L2.23023 8.2556C2.14778 8.18666 2.08298 8.09903 2.04123 8C1.96324 7.86272 1.93584 7.70245 1.96379 7.54706C1.99174 7.39167 2.07329 7.25099 2.19423 7.1495L5.60703 4.2857C5.74428 4.17065 5.92161 4.11483 6.10001 4.13053C6.27842 4.14623 6.44328 4.23215 6.55833 4.3694C6.67338 4.50665 6.7292 4.68398 6.7135 4.86239C6.6978 5.04079 6.61188 5.20565 6.47463 5.3207L4.37673 7.0793H12.402C12.4691 7.08022 12.5358 7.09052 12.6 7.1099C13.13 7.11013 13.6534 7.22736 14.1328 7.45324C14.6122 7.67912 15.0359 8.00806 15.3735 8.41659C15.7111 8.82511 15.9544 9.30313 16.0859 9.81653C16.2174 10.3299 16.2339 10.866 16.1343 11.3866C16.0347 11.9071 15.8214 12.3992 15.5096 12.8278C15.1978 13.2563 14.7953 13.6108 14.3307 13.8658C13.8661 14.1208 13.3509 14.2701 12.822 14.303C12.293 14.3359 11.7633 14.2516 11.2707 14.0561L11.5803 12.716C11.8848 12.8702 12.2203 12.9531 12.5615 12.9585C12.9028 12.9639 13.2408 12.8915 13.5499 12.747C13.8591 12.6025 14.1313 12.3895 14.346 12.1242C14.5607 11.8589 14.7122 11.5483 14.7891 11.2158C14.866 10.8833 14.8663 10.5377 14.7899 10.2051C14.7134 9.87245 14.5624 9.56157 14.3481 9.29597C14.1338 9.03036 13.8619 8.81698 13.553 8.67198C13.244 8.52697 12.9062 8.45414 12.5649 8.459L12.5721 8.4302H4.53783Z"
        fill="#75798A" />
</svg>