<svg xmlns="http://www.w3.org/2000/svg" width="20" height="21" viewBox="0 0 20 21" fill="none">
    <path
        d="M8.50025 8.75028C8.50504 8.91734 8.47628 9.08367 8.41568 9.23942C8.35507 9.39517 8.26385 9.53719 8.14741 9.65707C8.03096 9.77695 7.89165 9.87227 7.73773 9.93738C7.58381 10.0025 7.41839 10.0361 7.25126 10.0361C7.08414 10.0362 6.91869 10.0028 6.76472 9.93777C6.61074 9.87278 6.47136 9.77758 6.35482 9.65779C6.23828 9.538 6.14694 9.39605 6.08621 9.24035C6.02548 9.08465 5.99659 8.91835 6.00125 8.75129C6.01032 8.42601 6.14588 8.1171 6.37911 7.89019C6.61234 7.66328 6.92486 7.53626 7.25026 7.53613C7.57566 7.536 7.88829 7.66277 8.1217 7.88949C8.35511 8.11621 8.49092 8.42502 8.50025 8.75028ZM14.0002 8.75028C14.005 8.91734 13.9763 9.08367 13.9157 9.23942C13.8551 9.39517 13.7639 9.53719 13.6474 9.65707C13.531 9.77695 13.3917 9.87227 13.2377 9.93738C13.0838 10.0025 12.9184 10.0361 12.7513 10.0361C12.5841 10.0362 12.4187 10.0028 12.2647 9.93777C12.1107 9.87278 11.9714 9.77758 11.8548 9.65779C11.7383 9.538 11.6469 9.39605 11.5862 9.24035C11.5255 9.08465 11.4966 8.91835 11.5012 8.75129C11.5103 8.42601 11.6459 8.1171 11.8791 7.89019C12.1123 7.66328 12.4249 7.53626 12.7503 7.53613C13.0757 7.536 13.3883 7.66277 13.6217 7.88949C13.8551 8.11621 13.9909 8.42502 14.0002 8.75028ZM7.12725 12.5883C7.07314 12.5059 7.00335 12.4351 6.92186 12.3797C6.84036 12.3243 6.74876 12.2856 6.65228 12.2656C6.5558 12.2456 6.45633 12.2449 6.35955 12.2633C6.26278 12.2818 6.17059 12.3192 6.08825 12.3733C6.00591 12.4274 5.93503 12.4972 5.87967 12.5787C5.8243 12.6602 5.78553 12.7518 5.76556 12.8483C5.7456 12.9447 5.74483 13.0442 5.76331 13.141C5.78179 13.2378 5.81914 13.3299 5.87325 13.4123C6.88025 14.9443 8.42325 15.7503 10.0002 15.7503C11.5782 15.7503 13.1202 14.9453 14.1272 13.4123C14.2365 13.246 14.2753 13.0431 14.2349 12.8483C14.1946 12.6534 14.0785 12.4826 13.9122 12.3733C13.746 12.264 13.5431 12.2253 13.3482 12.2656C13.1534 12.3059 12.9825 12.422 12.8732 12.5883C12.1302 13.7213 11.0482 14.2503 10.0002 14.2503C8.95325 14.2503 7.87025 13.7213 7.12725 12.5883Z"
        fill="#75798A" />
    <path
        d="M10 19.5C12.3869 19.5 14.6761 18.5518 16.364 16.864C18.0518 15.1761 19 12.8869 19 10.5C19 8.11305 18.0518 5.82387 16.364 4.13604C14.6761 2.44821 12.3869 1.5 10 1.5C7.61305 1.5 5.32387 2.44821 3.63604 4.13604C1.94821 5.82387 1 8.11305 1 10.5C1 12.8869 1.94821 15.1761 3.63604 16.864C5.32387 18.5518 7.61305 19.5 10 19.5ZM10 18C8.01088 18 6.10322 17.2098 4.6967 15.8033C3.29018 14.3968 2.5 12.4891 2.5 10.5C2.5 8.51088 3.29018 6.60322 4.6967 5.1967C6.10322 3.79018 8.01088 3 10 3C11.9891 3 13.8968 3.79018 15.3033 5.1967C16.7098 6.60322 17.5 8.51088 17.5 10.5C17.5 12.4891 16.7098 14.3968 15.3033 15.8033C13.8968 17.2098 11.9891 18 10 18Z"
        fill="#75798A" />
</svg>