<svg xmlns="http://www.w3.org/2000/svg" width="18" height="18" viewBox="0 0 18 18" fill="none">
    <path
        d="M2.69995 16.2002V14.8502H15.3V16.2002H2.69995ZM4.67995 9.0002V3.2402C4.67995 2.8802 5.03995 2.7002 5.39995 2.7002C5.66995 2.7002 6.02995 2.8802 6.02995 3.2402V8.8202C6.02995 10.6202 7.19995 11.3402 8.90995 11.3402C10.62 11.3402 11.97 10.5302 11.97 8.7302V3.2402C11.97 2.9702 12.33 2.7902 12.69 2.7902C12.96 2.7902 13.32 2.9702 13.32 3.2402V9.0002C13.32 11.4302 11.34 12.6002 8.90995 12.6002C6.56995 12.6002 4.67995 11.5202 4.67995 9.0002Z"
        fill="#75798A" />
</svg>