<svg xmlns="http://www.w3.org/2000/svg" width="18" height="18" viewBox="0 0 18 18" fill="none">
  <path d="M6.30039 5.17461C6.30039 5.54721 6.60279 5.84961 6.97539 5.84961H15.5254C15.7044 5.84961 15.8761 5.77849 16.0027 5.65191C16.1293 5.52532 16.2004 5.35363 16.2004 5.17461C16.2004 4.99559 16.1293 4.8239 16.0027 4.69731C15.8761 4.57073 15.7044 4.49961 15.5254 4.49961H6.97539C6.79637 4.49961 6.62468 4.57073 6.49809 4.69731C6.37151 4.8239 6.30039 4.99559 6.30039 5.17461ZM0.900391 5.17461C0.900391 4.30521 1.59969 3.59961 2.47539 3.59961C3.34479 3.59961 4.05039 4.29891 4.05039 5.17461C4.05039 6.04401 3.35109 6.74961 2.47539 6.74961C1.60599 6.74961 0.900391 6.05031 0.900391 5.17461ZM6.30039 13.2746C6.30039 13.6472 6.60279 13.9496 6.97539 13.9496H15.5254C15.7044 13.9496 15.8761 13.8785 16.0027 13.7519C16.1293 13.6253 16.2004 13.4536 16.2004 13.2746C16.2004 13.0956 16.1293 12.9239 16.0027 12.7973C15.8761 12.6707 15.7044 12.5996 15.5254 12.5996H6.97539C6.79637 12.5996 6.62468 12.6707 6.49809 12.7973C6.37151 12.9239 6.30039 13.0956 6.30039 13.2746ZM0.900391 13.2746C0.900391 12.4052 1.59969 11.6996 2.47539 11.6996C3.34479 11.6996 4.05039 12.3989 4.05039 13.2746C4.05039 14.144 3.35109 14.8496 2.47539 14.8496C1.60599 14.8496 0.900391 14.1503 0.900391 13.2746Z" fill="#75798A"/>
</svg>